<?xml version="1.0" encoding="utf-8"?>
<!-- Generator: Adobe Illustrator 16.0.0, SVG Export Plug-In . SVG Version: 6.00 Build 0)  -->
<!DOCTYPE svg PUBLIC "-//W3C//DTD SVG 1.1//EN" "http://www.w3.org/Graphics/SVG/1.1/DTD/svg11.dtd">
<svg version="1.1" id="Layer_1" xmlns="http://www.w3.org/2000/svg" xmlns:xlink="http://www.w3.org/1999/xlink" x="0px" y="0px"
	 width="100px" height="100px" viewBox="-18 -18 100 100" enable-background="new -18 -18 100 100" xml:space="preserve">
<path fill="none" d="M32.001,58.927c14.849,0,26.923-12.082,26.923-26.927c0-14.846-12.074-26.925-26.923-26.925
	C17.151,5.074,5.076,17.151,5.076,32C5.076,46.849,17.151,58.927,32.001,58.927z M32.001,8.778c12.789,0,23.22,10.435,23.22,23.222
	c0,12.788-10.432,23.222-23.22,23.222C19.21,55.222,8.779,44.787,8.779,32C8.779,19.212,19.211,8.778,32.001,8.778z"/>
<path fill="#231F20" d="M32.001,55.222c12.789,0,23.22-10.435,23.22-23.222c0-12.787-10.432-23.222-23.22-23.222
	C19.211,8.778,8.779,19.212,8.779,32C8.779,44.787,19.21,55.222,32.001,55.222z"/>
<path fill="#231F20" d="M-6.137,39.724L-18,47.452l14.378-0.376c7.894-0.204,12.188,5.415,9.537,12.5L1.098,72.452l11.4-8.344
	c6.261-4.577,13.205-2.428,15.442,4.777l4.061,13.115l4.06-13.115c2.235-7.205,9.18-9.354,15.441-4.777l11.398,8.344l-4.817-12.876
	c-2.651-7.085,1.643-12.704,9.538-12.5l14.377,0.376l-11.863-7.729c-6.513-4.248-6.513-11.196,0.003-15.442L82,16.55l-14.378,0.377
	c-7.896,0.205-12.189-5.416-9.536-12.5l4.819-12.877l-11.4,8.346C45.244,4.47,38.3,2.321,36.064-4.883L32.001-18L27.94-4.885
	c-2.237,7.204-9.181,9.353-15.443,4.779L1.098-8.451L5.915,4.426c2.652,7.083-1.643,12.703-9.537,12.5L-18,16.55l11.862,7.731
	C0.377,28.527,0.377,35.476-6.137,39.724z M32.001,5.074c14.849,0,26.923,12.079,26.923,26.925
	c0,14.845-12.074,26.927-26.923,26.927C17.151,58.927,5.076,46.849,5.076,32C5.076,17.151,17.151,5.074,32.001,5.074z"/>
</svg>
