<svg xmlns="http://www.w3.org/2000/svg" xmlns:xlink="http://www.w3.org/1999/xlink" version="1.1" id="Ebene_1" x="0px" y="0px" width="100px" height="100px" viewBox="0 0 100 100" enable-background="new 0 0 100 100" xml:space="preserve">
<path d="M49.996,21.148c-21.193,0-38.435,17.242-38.435,38.436c0,21.191,17.242,38.434,38.435,38.434  c21.192,0,38.435-17.242,38.435-38.434C88.429,38.391,71.188,21.148,49.996,21.148z M49.996,91.476  c-17.586,0-31.893-14.308-31.893-31.892c0-17.586,14.307-31.894,31.893-31.894c17.585,0,31.892,14.309,31.892,31.894  C81.887,77.17,67.581,91.476,49.996,91.476z"/>
<rect x="48.303" y="31.711" width="3.386" height="9.9"/>
<rect x="48.303" y="77.557" width="3.386" height="9.895"/>
<rect x="67.965" y="57.89" width="9.901" height="3.384"/>
<rect x="22.125" y="57.89" width="9.896" height="3.384"/>
<polygon points="43.874,17.105 56.116,17.105 56.116,7.514 60.414,7.514 60.414,1.87 39.576,1.87 39.576,7.514 43.874,7.514 "/>
<path d="M71.163,42.345l-3.662-3.662L54.132,52.051c-1.227-0.676-2.636-1.063-4.136-1.063c-4.748,0-8.595,3.85-8.595,8.597  c0,4.745,3.848,8.594,8.595,8.594c4.746,0,8.592-3.849,8.592-8.594c0-1.358-0.322-2.639-0.884-3.78L71.163,42.345z"/>
<rect x="76.229" y="25.441" transform="matrix(-0.707 -0.7072 0.7072 -0.707 119.5009 106.0675)" width="10.987" height="5.677"/>
</svg>