<?xml version="1.0" encoding="utf-8"?>
<!-- Generator: Adobe Illustrator 18.0.0, SVG Export Plug-In . SVG Version: 6.00 Build 0)  -->
<!DOCTYPE svg PUBLIC "-//W3C//DTD SVG 1.1//EN" "http://www.w3.org/Graphics/SVG/1.1/DTD/svg11.dtd">
<svg id="pos1"
	 viewBox="0 0 100 100">
<g id="Layer_1">
	<g id="body">
		<g>
			<path d="M61.8,38.6v14.9c0,2.9-3.8,2.9-3.8,0V38.9h-1.2v39.6c0,1.5-1.2,2.7-2.7,2.7s-2.7-1.2-2.7-2.7v-23H50v23
				c0,1.5-1.2,2.7-2.7,2.7s-2.7-1.2-2.7-2.7c0,0-0.8-27.7-0.3-40.3c0-0.6-2.5-2.8-2.5-3.3c0.2-2.8,3.1-2.7,3.5-2.7h10.8
				C59.9,32.2,61.8,35.4,61.8,38.6z"/>
		</g>
		<circle cx="50.3" cy="26.3" r="4.9"/>
		<circle cx="22.8" cy="27.7" r="4.6"/>
		<path d="M17.4,77.2c0,1.4,1.2,2.6,2.6,2.6s2.6-1.2,2.6-2.6V55.4h1.2v21.8c0,1.4,1.2,2.6,2.6,2.6s2.6-1.2,2.6-2.6V39.7h1v13.8
			c0,2.8,3.6,2.8,3.6,0V39.4c0-3.1-1.8-6.1-5.4-6.1H17.8c-3.3,0-5.3,2.7-5.3,6v14.2c0,2.8,3.6,2.8,3.6,0V39.7h1.2L17.4,77.2z"/>
		<circle cx="79.9" cy="27.7" r="4.6"/>
		<path d="M74.4,77.2c0,1.4,1.2,2.6,2.6,2.6s2.6-1.2,2.6-2.6V55.4h1.2v21.8c0,1.4,1.2,2.6,2.6,2.6s2.6-1.2,2.6-2.6V39.7h1.1v13.8
			c0,2.8,3.6,2.8,3.6,0V39.4c0-3.1-1.8-6.1-5.4-6.1H74.9c-3.3,0-5.3,2.7-5.3,6v14.2c0,2.8,3.6,2.8,3.6,0V39.7h1.2L74.4,77.2z"/>
	</g>
</g>
<g id="Layer_2">
	<g id="Layer_5">
		<path d="M45.7,32.2c-0.9,0-1.4-1-1.4-1l0,0l-6.9-13.4C37,17,36,16.7,35.2,17.1l-0.6,0.3c-0.8,0.4-1.1,1.4-0.7,2.2L41.7,35
			c0.4,0.8,1.4,1.1,2.2,0.7l0.6-0.3c0.8-0.4,1.1-1.4,0.7-2.2l0,0C45.7,32.8,46.4,32.2,45.7,32.2z"/>
	</g>
</g>
</svg>
