<?xml version="1.0" encoding="utf-8"?>
<!-- Generator: Adobe Illustrator 18.0.0, SVG Export Plug-In . SVG Version: 6.00 Build 0)  -->
<!DOCTYPE svg PUBLIC "-//W3C//DTD SVG 1.1//EN" "http://www.w3.org/Graphics/SVG/1.1/DTD/svg11.dtd">
<svg version="1.1" xmlns="http://www.w3.org/2000/svg" xmlns:xlink="http://www.w3.org/1999/xlink" x="0px" y="0px"
	 viewBox="0 0 100 100" enable-background="new 0 0 100 100" xml:space="preserve">
<g id="Layer_1">
	<g id="body">
		<g>
			<path d="M61.8,38.6v14.9c0,2.9-3.8,2.9-3.8,0V38.9h-1.2v39.6c0,1.5-1.2,2.7-2.7,2.7s-2.7-1.2-2.7-2.7v-23H50v23
				c0,1.5-1.2,2.7-2.7,2.7s-2.7-1.2-2.7-2.7c0,0-0.8-27.7-0.3-40.3c0-0.6-2.5-2.8-2.5-3.3c0.2-2.8,3.1-2.7,3.5-2.7h10.8
				C59.9,32.2,61.8,35.4,61.8,38.6z"/>
		</g>
		<circle cx="50.3" cy="26.3" r="4.9"/>
		<circle cx="22.8" cy="27.7" r="4.6"/>
		<path d="M17.4,77.2c0,1.4,1.2,2.6,2.6,2.6s2.6-1.2,2.6-2.6V55.4h1.2v21.8c0,1.4,1.2,2.6,2.6,2.6s2.6-1.2,2.6-2.6V39.7h1v13.8
			c0,2.8,3.6,2.8,3.6,0V39.4c0-3.1-1.8-6.1-5.4-6.1H17.8c-3.3,0-5.3,2.7-5.3,6v14.2c0,2.8,3.6,2.8,3.6,0V39.7h1.2L17.4,77.2z"/>
		<circle cx="79.9" cy="27.7" r="4.6"/>
		<path d="M74.4,77.2c0,1.4,1.2,2.6,2.6,2.6s2.6-1.2,2.6-2.6V55.4h1.2v21.8c0,1.4,1.2,2.6,2.6,2.6s2.6-1.2,2.6-2.6V39.7h1.1v13.8
			c0,2.8,3.6,2.8,3.6,0V39.4c0-3.1-1.8-6.1-5.4-6.1H74.9c-3.3,0-5.3,2.7-5.3,6v14.2c0,2.8,3.6,2.8,3.6,0V39.7h1.2L74.4,77.2z"/>
	</g>
</g>
<g id="Layer_5_3_">
	<g id="Layer_5_4_">
		<path d="M46.2,32.4c-0.9,0.3-1.7-0.6-1.7-0.6l0,0l-10.9-12c-0.6-0.7-1.8-0.7-2.5-0.1l-0.5,0.5c-0.7,0.6-0.7,1.8-0.1,2.5l12.4,13.8
			c0.6,0.7,1.8,0.7,2.5,0.1l0.5-0.5c0.7-0.6,0.7-1.8,0.1-2.5l0,0C46.4,33,46.9,32.2,46.2,32.4z"/>
	</g>
</g>
</svg>
