<svg xmlns="http://www.w3.org/2000/svg" xmlns:xlink="http://www.w3.org/1999/xlink" version="1.0" id="Ebene_1" x="0px" y="0px" width="100px" height="100px" viewBox="0 0 100 100" style="enable-background:new 0 0 100 100;" xml:space="preserve">
<style type="text/css">

	.st0{fill:#1D1D1B;}

</style>
<path class="st0" d="M61.3,69.6l6.8-1.7l0-9.6l-6.8-1.7c-0.6-2.1-1.4-4.2-2.5-6.1l3.6-6.1l-6.8-6.8l-6.1,3.6c-1.9-1.1-4-2-6.1-2.5  l-1.7-6.8h-9.6l-1.8,6.8c-2.1,0.6-4.2,1.4-6.1,2.5l-6.1-3.6l-6.8,6.8l3.6,6.1c-1.1,1.9-2,4-2.5,6.1l-6.8,1.7v9.6l6.8,1.7  c0.6,2.1,1.4,4.2,2.5,6.1l-3.6,6.1l6.8,6.8l6.1-3.6c1.9,1.1,4,2,6.1,2.5l1.7,6.8l9.6,0l1.7-6.8c2.1-0.6,4.2-1.4,6.1-2.5l6.1,3.6  l6.8-6.8l-3.6-6.1C59.9,73.8,60.8,71.7,61.3,69.6z M36.9,72.9c-5.4,0-9.8-4.4-9.8-9.8c0-5.4,4.4-9.8,9.8-9.8c5.4,0,9.8,4.4,9.8,9.8  C46.7,68.5,42.3,72.9,36.9,72.9z"/>
<circle class="st0" cx="36.9" cy="63.1" r="3.4"/>
<circle class="st0" cx="76" cy="24.4" r="3.4"/>
<path class="st0" d="M91.5,22.4l3.5-2.6l-2.2-5.5l-4.3,0.6c-0.8-1.1-1.8-2.1-2.9-2.9l0.6-4.3l-5.4-2.3l-2.6,3.5  c-1.4-0.2-2.7-0.2-4.1,0l-2.6-3.5L66,7.6l0.6,4.3c-1.1,0.8-2.1,1.8-2.9,2.9l-4.3-0.6L57,19.6l3.5,2.6c-0.2,1.4-0.2,2.7,0,4.1  L57,28.9l2.2,5.5l4.3-0.6c0.8,1.1,1.8,2.1,2.9,2.9L65.8,41l5.4,2.3l2.6-3.5c1.4,0.2,2.8,0.2,4.1,0l2.6,3.5l5.5-2.2l-0.6-4.3  c1.1-0.8,2.1-1.8,2.9-2.9l4.3,0.6l2.3-5.4l-3.5-2.6C91.6,25.1,91.6,23.8,91.5,22.4z M76,34.2c-5.4,0-9.8-4.4-9.8-9.8  c0-5.4,4.4-9.8,9.8-9.8s9.8,4.4,9.8,9.8C85.8,29.8,81.4,34.2,76,34.2z"/>
</svg>